<?xml version="1.0" encoding="UTF-8" standalone="no"?>
<!-- Created with Inkscape (http://www.inkscape.org/) -->

<svg
   width="397.01694mm"
   height="113.64981mm"
   viewBox="0 0 397.01694 113.64981"
   version="1.1"
   id="svg1978"
   inkscape:version="1.1.2 (0a00cf5339, 2022-02-04)"
   sodipodi:docname="logo.svg"
   xmlns:inkscape="http://www.inkscape.org/namespaces/inkscape"
   xmlns:sodipodi="http://sodipodi.sourceforge.net/DTD/sodipodi-0.dtd"
   xmlns="http://www.w3.org/2000/svg"
   xmlns:svg="http://www.w3.org/2000/svg">
  <sodipodi:namedview
     id="namedview1980"
     pagecolor="#ffffff"
     bordercolor="#666666"
     borderopacity="1.0"
     inkscape:pageshadow="2"
     inkscape:pageopacity="0.0"
     inkscape:pagecheckerboard="0"
     inkscape:document-units="mm"
     showgrid="false"
     fit-margin-top="0"
     fit-margin-left="0"
     fit-margin-right="0"
     fit-margin-bottom="0"
     inkscape:zoom="0.73940797"
     inkscape:cx="948.05578"
     inkscape:cy="554.49768"
     inkscape:window-width="1920"
     inkscape:window-height="1008"
     inkscape:window-x="0"
     inkscape:window-y="0"
     inkscape:window-maximized="1"
     inkscape:current-layer="layer1" />
  <defs
     id="defs1975" />
  <g
     inkscape:label="Layer 1"
     inkscape:groupmode="layer"
     id="layer1"
     transform="translate(265.78076,-1.859431)">
    <g
       id="g184"
       transform="matrix(1.2054023,0,0,1.2054023,-203.85102,13.374214)">
      <svg
         viewBox="0 0 329.37277 94.283717"
         height="94.283714"
         width="329.37277"
         version="1.1"
         id="svg182">
        <g
           id="textblocktransform">
          <svg
             viewBox="0 0 329.37277 94.283717"
             height="94.283714"
             width="329.37277"
             id="textblock"
             version="1.1">
            <g
               id="g169">
              <svg
                 viewBox="0 0 329.37277 59.2997"
                 height="59.299702"
                 width="329.37277"
                 version="1.1"
                 id="svg167">
                <g
                   id="g133">
                  <svg
                     version="1.1"
                     id="svg131"
                     width="100%"
                     height="100%">
                    <g
                       id="g127" />
                    <g
                       id="g129" />
                  </svg>
                </g>
                <g
                   id="g143">
                  <svg
                     version="1.1"
                     id="svg141"
                     width="100%"
                     height="100%">
                    <g
                       id="g137">
                      <svg
                         version="1.1"
                         id="svg135"
                         width="100%"
                         height="100%" />
                    </g>
                    <g
                       id="g139" />
                  </svg>
                </g>
                <g
                   id="text-0">
                  <svg
                     viewBox="0 0 329.37277 59.2997"
                     height="59.299702"
                     width="329.37277"
                     version="1.1"
                     id="svg164">
                    <g
                       id="g149">
                      <svg
                         width="250.14281"
                         viewBox="2 -36 154.59 36.65"
                         height="59.299702"
                         data-palette-color="#e1410d"
                         version="1.1"
                         id="svg147" />
                    </g>
                    <g
                       id="g162">
                      <svg
                         xml:space="preserve"
                         viewBox="0 4.5 100.1 91"
                         id="dxe-0"
                         width="65.229668"
                         height="59.299702"
                         x="264.1431"
                         y="0"
                         class="icon-dxe-0"
                         data-fill-palette-color="accent"
                         version="1.1" />
                    </g>
                  </svg>
                </g>
              </svg>
            </g>
            <g
               transform="translate(62.910199,73.298936)"
               id="g178">
              <svg
                 viewBox="0 0 203.55237 20.984781"
                 height="20.984781"
                 width="203.55237"
                 version="1.1"
                 id="svg176">
                <g
                   id="g174">
                  <svg
                     width="203.55237"
                     viewBox="2.15 -36.75 363.72 37.5"
                     height="20.984781"
                     data-palette-color="#e1410d"
                     version="1.1"
                     id="svg172" />
                </g>
              </svg>
            </g>
          </svg>
        </g>
      </svg>
    </g>
    <g
       id="g186"
       transform="matrix(1.2054023,0,0,1.2054023,-203.85102,13.374214)" />
    <path
       d="m -228.13918,72.071707 h -6.72868 l -0.39007,-5.851023 q -2.14537,2.925512 -5.59747,4.875852 -3.47161,1.950341 -8.83505,1.950341 v 0 q -2.82799,0 -5.69499,-0.819143 -2.88651,-0.838646 -5.18791,-2.652463 -2.2819,-1.794314 -3.74466,-4.622308 -1.46275,-2.827995 -1.46275,-6.923711 v 0 q 0,-8.5815 7.07974,-13.554869 7.06023,-4.973369 22.76047,-5.265921 v 0 -4.388267 q 0,-4.680818 -2.28189,-7.762357 -2.30141,-3.062035 -7.76236,-3.062035 v 0 q -4.19323,0 -6.96272,2.086865 -2.78899,2.106368 -4.25174,6.104567 v 0 l -7.11875,-2.730477 q 2.34041,-5.265921 7.02123,-8.386466 4.68082,-3.120546 11.50701,-3.120546 v 0 q 4.48579,0 7.80137,1.209212 3.31558,1.228714 5.49996,3.315579 2.20388,2.106368 3.27657,4.97337 1.07269,2.886504 1.07269,6.202084 v 0 z m -19.40589,-5.265921 v 0 q 3.70564,0 6.53364,-1.657789 2.82799,-1.65779 5.07088,-4.193233 v 0 -15.602728 q -11.21446,0.195034 -16.48038,3.159553 -5.26592,2.984021 -5.26592,8.932561 v 0 q 0,4.973369 2.98402,7.157751 2.96452,2.203885 7.15776,2.203885 z m 68.74951,5.265921 h -6.72867 l -0.39007,-5.851023 q -2.14538,2.925512 -5.61698,4.875852 -3.45211,1.950341 -8.81554,1.950341 v 0 q -2.828,0 -5.7145,-0.819143 -2.867,-0.838646 -5.16841,-2.652463 -2.2819,-1.794314 -3.74465,-4.622308 -1.46276,-2.827995 -1.46276,-6.923711 v 0 q 0,-8.5815 7.06024,-13.554869 7.07974,-4.973369 22.77998,-5.265921 v 0 -4.388267 q 0,-4.680818 -2.3014,-7.762357 -2.2819,-3.062035 -7.74286,-3.062035 v 0 q -4.19323,0 -6.98222,2.086865 -2.76948,2.106368 -4.23224,6.104567 v 0 l -7.11874,-2.730477 q 2.34041,-5.265921 7.02123,-8.386466 4.68081,-3.120546 11.50701,-3.120546 v 0 q 4.48578,0 7.80136,1.209212 3.31558,1.228714 5.49996,3.315579 2.20389,2.106368 3.27658,4.97337 1.07268,2.886504 1.07268,6.202084 v 0 z m -19.40589,-5.265921 v 0 q 3.70565,0 6.53364,-1.657789 2.828,-1.65779 5.07089,-4.193233 v 0 -15.602728 q -11.21446,0.195034 -16.48038,3.159553 -5.26592,2.984021 -5.26592,8.932561 v 0 q 0,4.973369 2.96452,7.157751 2.98402,2.203885 7.17725,2.203885 z m 35.96429,-64.9463523 h 17.47505 q 10.90241,0 16.0318,4.5833012 5.1099,4.5833011 5.1099,12.6772161 v 0 q 0,2.730477 -0.81915,5.20741 -0.81914,2.496437 -2.3404,4.544295 -1.50177,2.047857 -3.60814,3.54962 -2.10636,1.521266 -4.54429,2.203885 v 0 q 2.63296,0.390068 5.28542,1.560273 2.61346,1.170205 4.66132,3.257069 2.06736,2.106368 3.31558,5.226914 1.28722,3.120545 1.28722,7.508813 v 0 q 0,5.363437 -2.00885,9.166602 -1.98935,3.803165 -5.30492,6.182581 -3.33509,2.398919 -7.56733,3.471606 -4.23224,1.072688 -8.73752,1.072688 v 0 h -18.23569 z m 17.65058,35.9837903 h -9.36163 v 27.889875 h 9.7517 q 2.92551,0 5.61698,-0.682619 2.67197,-0.68262 4.81735,-2.301403 2.16487,-1.599279 3.41309,-4.193233 1.26772,-2.57445 1.26772,-6.377614 v 0 q 0,-7.021228 -3.90068,-10.687869 -3.90068,-3.647137 -11.60453,-3.647137 z m -0.37056,-30.2302845 h -8.99107 V 31.894684 h 8.99107 q 6.70917,0 9.88823,-3.31558 3.15955,-3.315579 3.15955,-9.166602 v 0 q 0,-6.241091 -3.54962,-9.030078 -3.54962,-2.7694845 -9.49816,-2.7694845 z m 38.20718,-5.7535058 h 17.455548 q 10.921914,0 16.051311,4.5833012 5.109893,4.5833011 5.109893,12.6772161 v 0 q 0,2.730477 -0.819143,5.20741 -0.838647,2.496437 -2.340409,4.544295 -1.521266,2.047857 -3.608131,3.54962 -2.106368,1.521266 -4.544294,2.203885 v 0 q 2.63296,0.390068 5.26592,1.560273 2.63296,1.170205 4.680818,3.257069 2.047858,2.106368 3.31558,5.226914 1.267722,3.120545 1.267722,7.508813 v 0 q 0,5.363437 -1.989348,9.166602 -2.008851,3.803165 -5.324431,6.182581 -3.31558,2.398919 -7.547819,3.471606 -4.251748,1.072688 -8.737532,1.072688 v 0 h -18.235685 z m 17.650582,35.9837903 h -9.361636 v 27.889875 h 9.751704 q 2.925512,0 5.616987,-0.682619 2.671967,-0.68262 4.817342,-2.301403 2.145375,-1.599279 3.413097,-4.193233 1.267721,-2.57445 1.267721,-6.377614 v 0 q 0,-7.021228 -3.900681,-10.687869 -3.900682,-3.647137 -11.604534,-3.647137 z M -89.489446,7.6129395 h -8.971568 V 31.894684 h 8.971568 q 6.728681,0 9.907737,-3.31558 3.159552,-3.315579 3.159552,-9.166602 v 0 q 0,-6.241091 -3.54962,-9.030078 -3.569129,-2.7694845 -9.517669,-2.7694845 z m 43.785159,38.0316475 v 0 q 0,11.116944 3.60813,16.18783 3.608131,5.070886 9.654188,5.070886 v 0 q 4.193233,0 6.92371,-2.008851 2.730477,-1.989347 5.265921,-6.18258 v 0 l 6.338608,4.095716 q -2.827995,4.485784 -7.450303,7.508812 -4.641811,3.023029 -11.175453,3.023029 v 0 q -4.388267,0 -8.230439,-1.521266 -3.861675,-1.501763 -6.787186,-4.817342 -2.925512,-3.31558 -4.622308,-8.542494 -1.7163,-5.20741 -1.7163,-12.618705 v 0 q 0,-7.216262 1.657789,-12.482182 1.65779,-5.265921 4.583302,-8.679017 2.925511,-3.413097 6.884703,-5.070887 3.939689,-1.65779 8.52299,-1.65779 v 0 q 5.558472,0 9.654187,1.891831 4.095716,1.911334 7.60633,6.592152 v 0 l -6.046057,4.388267 q -2.535443,-3.705647 -5.109893,-5.168403 -2.593953,-1.462756 -6.104567,-1.462756 v 0 q -6.046057,0 -9.751705,5.168404 -3.705647,5.168403 -3.705647,16.285346 z m 49.636176,0 v 0 q 0,11.116944 3.6081307,16.18783 3.6081303,5.070886 9.6541873,5.070886 v 0 q 4.193233,0 6.923711,-2.008851 2.730477,-1.989347 5.26592,-6.18258 v 0 l 6.338608,4.095716 q -2.827994,4.485784 -7.469806,7.508812 -4.622308,3.023029 -11.15595,3.023029 v 0 q -4.388267,0 -8.2499419,-1.521266 Q 5.0045765,70.3164 2.0790652,67.000821 -0.84644623,63.685241 -2.5627462,58.458327 -4.2595428,53.250917 -4.2595428,45.839622 v 0 q 0,-7.216262 1.6577897,-12.482182 1.65778982,-5.265921 4.5833012,-8.679017 2.9255114,-3.413097 6.8652,-5.070887 3.9591919,-1.65779 8.5424929,-1.65779 v 0 q 5.558472,0 9.654188,1.891831 4.095716,1.911334 7.60633,6.592152 v 0 l -6.046057,4.388267 q -2.535444,-3.705647 -5.129397,-5.168403 -2.57445,-1.462756 -6.085064,-1.462756 v 0 q -6.046056,0 -9.7517042,5.168404 Q 3.931889,34.527644 3.931889,45.644587 Z"
       opacity="1"
       fill="#e1410d"
       class="wordmark-text-0"
       data-fill-palette-color="primary"
       id="path145"
       style="stroke-width:1.95034" />
    <path
       d="M 129.27244,1.859431 H 54.493368 c -1.021144,0 -1.885188,0.8640439 -1.885188,1.8851866 V 71.454238 c 0,1.021144 0.864044,1.885187 1.885188,1.885187 h 74.857612 c 1.02115,0 1.88519,-0.864043 1.88519,-1.885187 V 3.7446176 C 131.15758,2.7234749 130.29359,1.859431 129.27244,1.859431 M 127.4658,5.6298044 V 21.73244 H 56.300001 V 5.6298044 Z M 56.300001,69.569052 V 25.502814 h 71.087249 v 44.066238 z"
       fill="#e1410d"
       data-fill-palette-color="accent"
       id="path151"
       style="stroke-width:0.785494" />
    <circle
       cx="65.883034"
       cy="13.720397"
       r="3.1419778"
       fill="#e1410d"
       data-fill-palette-color="accent"
       id="circle153"
       style="stroke-width:0.785494" />
    <circle
       cx="76.173004"
       cy="13.720397"
       r="3.1419778"
       fill="#e1410d"
       data-fill-palette-color="accent"
       id="circle155"
       style="stroke-width:0.785494" />
    <circle
       cx="86.541534"
       cy="13.720397"
       r="3.1419778"
       fill="#e1410d"
       data-fill-palette-color="accent"
       id="circle157"
       style="stroke-width:0.785494" />
    <path
       d="M 117.09727,34.614549 H 64.312045 c -1.021144,0 -1.885189,0.864044 -1.885189,1.885186 0,1.021144 0.864045,1.885188 1.885189,1.885188 h 52.785225 c 1.02115,0 1.88519,-0.864044 1.88519,-1.885188 0,-1.021142 -0.86404,-1.885186 -1.88519,-1.885186 M 95.888921,46.396966 H 64.312045 c -1.021144,0 -1.885189,0.864044 -1.885189,1.885186 0,1.021144 0.864045,1.885187 1.885189,1.885187 h 31.655432 c 1.021144,0 1.885176,-0.864043 1.885176,-1.885187 -0.07859,-1.021142 -0.942588,-1.885186 -1.963732,-1.885186 M 87.327032,58.257932 H 64.312045 c -1.021144,0 -1.885189,0.864044 -1.885189,1.885186 0,1.021143 0.864045,1.885188 1.885189,1.885188 h 23.014987 c 1.021145,0 1.885189,-0.864045 1.885189,-1.885188 -0.07859,-1.021142 -0.864044,-1.885186 -1.885189,-1.885186"
       fill="#e1410d"
       data-fill-palette-color="accent"
       id="path159"
       style="stroke-width:0.785494" />
    <path
       d="m -181.82014,92.440109 v 0 q -1.8887,0 -3.10287,0.890387 -1.21416,0.897134 -1.21416,2.819562 v 0 q 0,0.876896 0.23608,1.551433 0.23609,0.674536 0.79596,1.214165 0.55312,0.539628 1.46374,1.025294 0.91062,0.49241 2.25969,0.99831 v 0 q 1.31535,0.50591 2.49579,1.11299 1.18044,0.60708 2.07757,1.48398 0.89039,0.8769 1.41653,2.12479 0.51939,1.24789 0.51939,3.03541 v 0 q 0,1.3828 -0.55312,2.63069 -0.55987,1.24789 -1.55143,2.17201 -0.99832,0.93086 -2.38112,1.47048 -1.3828,0.53963 -3.03541,0.53963 v 0 q -1.68634,0 -2.95447,-0.41821 -1.26138,-0.42496 -2.172,-1.11973 -0.91063,-0.68803 -1.49747,-1.56492 -0.59359,-0.8769 -0.93086,-1.82125 v 0 l 2.42833,-0.91062 q 0.23608,0.67453 0.62731,1.31534 0.38449,0.64081 0.99157,1.12648 0.60709,0.49241 1.47049,0.79595 0.85666,0.30354 2.07083,0.30354 v 0 q 0.80944,0 1.61888,-0.2226 0.80945,-0.21585 1.47049,-0.72175 0.6543,-0.5059 1.05902,-1.34907 0.40473,-0.84317 0.40473,-2.05734 v 0 q 0,-1.28162 -0.31704,-2.12479 -0.32377,-0.84317 -1.0118,-1.48398 -0.69477,-0.6408 -1.80776,-1.14671 -1.11298,-0.5059 -2.66441,-1.14671 v 0 q -2.73188,-1.11298 -4.02699,-2.69814 -1.30185,-1.585162 -1.30185,-3.912312 v 0 q 0,-1.281618 0.47218,-2.414839 0.47217,-1.126475 1.3828,-1.956154 0.91062,-0.822934 2.21247,-1.29511 1.29511,-0.472175 2.98145,-0.472175 v 0 q 2.86678,0 4.48567,1.166947 1.61888,1.160202 2.49578,3.150084 v 0 l -2.49578,0.876897 q -0.57336,-1.416525 -1.58516,-2.192243 -1.01181,-0.775716 -2.83305,-0.775716 z m 22.22596,3.676222 h 2.7656 l -6.47555,11.602019 v 7.28499 h -2.69814 v -7.28499 L -172.579,96.116331 h 3.10287 l 4.89038,9.106239 z m 3.94604,15.379419 2.32715,-1.07925 q 0.20236,0.47217 0.60708,0.99156 0.40472,0.52614 1.0118,0.96459 0.60709,0.43845 1.43002,0.70826 0.82968,0.26982 1.84148,0.26982 v 0 q 0.74199,0 1.48398,-0.16864 0.74199,-0.16863 1.3086,-0.53963 0.5801,-0.37099 0.9511,-0.96458 0.37099,-0.58685 0.37099,-1.43002 v 0 q 0,-0.84317 -0.25632,-1.40303 -0.24958,-0.55312 -0.85666,-0.97808 -0.60708,-0.41821 -1.61889,-0.80944 -1.0118,-0.38449 -2.52951,-0.89039 v 0 q -2.42833,-0.80944 -3.83136,-2.02361 -1.39629,-1.21416 -1.39629,-3.33895 v 0 q 0,-0.944354 0.43845,-1.841486 0.43844,-0.890389 1.26138,-1.585161 0.82968,-0.688027 2.02361,-1.092748 1.20067,-0.404722 2.7521,-0.404722 v 0 q 2.32715,0 3.95953,0.978078 1.63912,0.978077 2.51602,2.596963 v 0 l -2.36088,0.944346 q -0.60708,-1.180433 -1.57166,-1.807751 -0.95785,-0.620574 -2.47555,-0.620574 v 0 q -0.74199,0 -1.45025,0.148398 -0.70827,0.155144 -1.2479,0.472176 -0.53963,0.323777 -0.87689,0.809443 -0.33727,0.492412 -0.33727,1.200678 v 0 q 0,0.70826 0.24958,1.19392 0.25632,0.49242 0.79595,0.89714 0.53963,0.40472 1.41653,0.75548 0.87689,0.3575 2.15851,0.82968 v 0 q 1.48398,0.53963 2.59022,1.02529 1.11973,0.49241 1.87521,1.13322 0.76223,0.64081 1.13322,1.51771 0.36425,0.8769 0.36425,2.19224 v 0 q 0,1.18044 -0.48567,2.15852 -0.48566,0.97807 -1.3828,1.68634 -0.89038,0.70826 -2.15851,1.11298 -1.26138,0.40472 -2.81282,0.40472 v 0 q -1.5177,0 -2.71838,-0.37099 -1.19393,-0.371 -2.09106,-0.96459 -0.89039,-0.58684 -1.49747,-1.29511 -0.60708,-0.70826 -0.91062,-1.3828 z m 30.81955,-15.379419 v 2.394604 h -5.59865 v 16.492405 h -2.7656 V 98.510935 h -5.53119 v -2.394604 z m 14.33389,8.195609 v 2.19225 h -7.68971 v 6.23946 h 8.66779 v 2.25969 h -11.43339 V 96.116331 h 11.43339 v 2.259696 h -8.66779 v 5.935913 z m 16.728499,10.6914 h -2.900506 l -5.193923,-14.83979 v 14.83979 h -2.59697 V 96.116331 h 3.87858 l 5.43002,15.784149 4.991567,-15.784149 h 3.878582 v 18.887009 h -2.698143 v -14.83979 z m 34.360865,0 h -2.900499 l -5.193934,-14.83979 v 14.83979 h -2.596955 V 96.116331 h 3.878575 l 5.430024,15.784149 4.991559,-15.784149 h 3.878586 v 18.887009 h -2.698148 v -14.83979 z m 12.883641,-9.4435 v 0 q 0,-2.63069 0.70827,-4.5194 0.708259,-1.888697 1.888697,-3.102862 1.180439,-1.214165 2.718375,-1.774029 1.531199,-0.55312 3.15009,-0.55312 v 0 q 1.618879,0 3.156828,0.55312 1.531199,0.559864 2.711637,1.774029 1.180438,1.214165 1.888697,3.102862 0.70827,1.88871 0.70827,4.5194 v 0 q 0,2.63069 -0.70827,4.51939 -0.708259,1.8887 -1.902185,3.10286 -1.200678,1.21417 -2.718388,1.76729 -1.51771,0.55986 -3.136589,0.55986 v 0 q -1.618891,0 -3.136589,-0.55986 -1.51771,-0.55312 -2.711637,-1.76729 -1.200677,-1.21416 -1.908936,-3.10286 -0.70827,-1.8887 -0.70827,-4.51939 z m 2.833057,0 v 0 q 0,3.84485 1.50421,5.78077 1.497471,1.94266 4.128165,1.94266 v 0 q 2.630694,0 4.134904,-1.94266 1.497471,-1.93592 1.497471,-5.78077 v 0 q 0,-3.84486 -1.497471,-5.801014 -1.50421,-1.956154 -4.134904,-1.956154 v 0 q -2.630694,0 -4.128165,1.935918 -1.50421,1.94266 -1.50421,5.82125 z m 30.455297,-9.443509 h 2.529513 v 18.887009 h -3.912302 l -6.981449,-15.784143 v 15.784143 h -2.596967 V 96.116331 h 3.979756 l 6.981449,15.615509 z m 8.6003404,0 h 2.7656027 v 18.887009 h -2.7656027 z m 20.5328826,0 v 2.394604 H 10.301223 V 115.00334 H 7.5356321 V 98.510935 H 2.0044387 v -2.394604 z m 2.698137,9.443509 v 0 q 0,-2.63069 0.70827,-4.5194 0.708258,-1.888697 1.888697,-3.102862 1.180438,-1.214165 2.718387,-1.774029 1.531186,-0.55312 3.150078,-0.55312 v 0 q 1.618891,0 3.156828,0.55312 1.531198,0.559864 2.711637,1.774029 1.180438,1.214165 1.888696,3.102862 0.708271,1.88871 0.708271,4.5194 v 0 q 0,2.63069 -0.708271,4.51939 -0.708258,1.8887 -1.902185,3.10286 -1.200677,1.21417 -2.718387,1.76729 -1.517698,0.55986 -3.136589,0.55986 v 0 q -1.618892,0 -3.13659,-0.55986 -1.51771,-0.55312 -2.711637,-1.76729 -1.200677,-1.21416 -1.908935,-3.10286 -0.70827,-1.8887 -0.70827,-4.51939 z m 2.833057,0 v 0 q 0,3.84485 1.504209,5.78077 1.497472,1.94266 4.128166,1.94266 v 0 q 2.630694,0 4.134903,-1.94266 1.497472,-1.93592 1.497472,-5.78077 v 0 q 0,-3.84486 -1.497472,-5.801014 -1.504209,-1.956154 -4.134903,-1.956154 v 0 q -2.630694,0 -4.128166,1.935918 -1.504209,1.94266 -1.504209,5.82125 z m 33.962885,9.4435 H 52.15619 l -4.924105,-6.94772 h -3.575042 v 6.94772 H 40.925167 V 96.116331 h 5.025298 q 1.720061,0 3.13659,0.337268 1.416528,0.337268 2.428331,1.079258 1.011803,0.74199 1.585152,1.868465 0.573362,1.133218 0.573362,2.684658 v 0 q 0,2.36087 -1.04553,3.64249 -1.04553,1.28162 -2.664421,1.85497 v 0 z M 46.01792,98.207393 h -2.360877 v 7.757167 h 2.225968 q 2.529513,0 3.757167,-0.89713 1.234392,-0.89039 1.234392,-2.98145 v 0 q 0,-1.98989 -1.234392,-2.934237 -1.227654,-0.94435 -3.622258,-0.94435 z"
       opacity="1"
       fill="#e1410d"
       class="slogan-text-1"
       data-fill-palette-color="secondary"
       id="text-1"
       style="stroke-width:0.674536" />
  </g>
</svg>
